<svg
            width="67"
            height="67"
            viewBox="0 0 67 67"
            fill="none"
            xmlns="http://www.w3.org/2000/svg"
          >
            <mask
              id="mask0_691_1035"
              style="mask-type:luminance"
              maskUnits="userSpaceOnUse"
              x="0"
              y="0"
              width="67"
              height="67"
            >
              <path
                d="M2.83325 24.1667L2.83325 21.5H1.49992C1.1463 21.5 0.807158 21.6405 0.557109 21.8905C0.307061 22.1406 0.166585 22.4797 0.166585 22.8334C0.166585 23.187 0.307061 23.5261 0.557109 23.7762C0.807158 24.0262 1.1463 24.1667 1.49992 24.1667"
                fill="white"
              />
              <path
                d="M0.166626 34.8334H2.83329V32.1667C2.12605 32.1667 1.44777 32.4477 0.947675 32.9478C0.447578 33.4479 0.166626 34.1261 0.166626 34.8334Z"
                fill="white"
              />
              <path
                d="M2.83329 34.8334H0.166626V37.5H2.83329V34.8334Z"
                fill="white"
              />
              <path
                d="M2.83325 40.1667L2.83325 37.5H0.166585C0.166585 38.2073 0.447537 38.8855 0.947634 39.3856C1.44773 39.8857 2.12601 40.1667 2.83325 40.1667Z"
                fill="white"
              />
              <path
                d="M5.49992 21.5H2.83325V24.1667H5.49992V21.5Z"
                fill="white"
              />
              <path
                d="M2.83325 32.1667V34.8334H4.16659C4.52021 34.8334 4.85935 34.6929 5.10939 34.4428C5.35944 34.1928 5.49992 33.8536 5.49992 33.5C5.49992 33.1464 5.35944 32.8073 5.10939 32.5572C4.85935 32.3072 4.52021 32.1667 4.16659 32.1667"
                fill="white"
              />
              <path
                d="M5.49992 37.5H2.83325V40.1667H5.49992V37.5Z"
                fill="white"
              />
              <path
                d="M5.5 21.5V24.1667H8.16667C8.16667 23.4594 7.88572 22.7811 7.38562 22.281C6.88552 21.781 6.20724 21.5 5.5 21.5Z"
                fill="white"
              />
              <path
                d="M8.16663 26.8334V24.1667H5.49996C5.49996 24.874 5.78091 25.5522 6.28101 26.0523C6.7811 26.5524 7.45938 26.8334 8.16663 26.8334Z"
                fill="white"
              />
              <path
                d="M5.5 37.5H8.16667V34.8333C7.45942 34.8333 6.78115 35.1143 6.28105 35.6144C5.78095 36.1145 5.5 36.7928 5.5 37.5Z"
                fill="white"
              />
              <path
                d="M8.16663 37.5H5.49996V40.1667C6.2072 40.1667 6.88548 39.8857 7.38558 39.3856C7.88567 38.8855 8.16663 38.2072 8.16663 37.5Z"
                fill="white"
              />
              <path
                d="M8.16663 24.1667V26.8334H9.49996C9.85358 26.8334 10.1927 26.6929 10.4428 26.4428C10.6928 26.1928 10.8333 25.8536 10.8333 25.5C10.8333 25.1464 10.6928 24.8073 10.4428 24.5572C10.1927 24.3072 9.85358 24.1667 9.49996 24.1667"
                fill="white"
              />
              <path
                d="M10.8333 34.8334H8.16663V37.5H10.8333V34.8334Z"
                fill="white"
              />
              <path
                d="M8.16663 42.8334H10.8333V41.5C10.8333 41.1464 10.6928 40.8073 10.4428 40.5572C10.1927 40.3072 9.85358 40.1667 9.49996 40.1667C9.14634 40.1667 8.8072 40.3072 8.55715 40.5572C8.3071 40.8073 8.16663 41.1464 8.16663 41.5"
                fill="white"
              />
              <path
                d="M10.8333 42.8334H8.16659V44.1667C8.16659 44.5203 8.30706 44.8595 8.55711 45.1095C8.80716 45.3596 9.1463 45.5 9.49992 45.5C9.85354 45.5 10.1927 45.3596 10.4427 45.1095C10.6928 44.8595 10.8333 44.5203 10.8333 44.1667"
                fill="white"
              />
              <path
                d="M12.1666 24.1667C12.903 24.1667 13.4999 23.5697 13.4999 22.8333C13.4999 22.097 12.903 21.5 12.1666 21.5C11.4302 21.5 10.8333 22.097 10.8333 22.8333C10.8333 23.5697 11.4302 24.1667 12.1666 24.1667Z"
                fill="white"
              />
              <path
                d="M12.1666 29.5C12.903 29.5 13.4999 28.9031 13.4999 28.1667C13.4999 27.4303 12.903 26.8334 12.1666 26.8334C11.4302 26.8334 10.8333 27.4303 10.8333 28.1667C10.8333 28.9031 11.4302 29.5 12.1666 29.5Z"
                fill="white"
              />
              <path
                d="M10.8333 34.8334H13.4999V33.5C13.4999 33.1464 13.3594 32.8073 13.1094 32.5572C12.8593 32.3072 12.5202 32.1667 12.1666 32.1667C11.813 32.1667 11.4738 32.3072 11.2238 32.5572C10.9737 32.8073 10.8333 33.1464 10.8333 33.5"
                fill="white"
              />
              <path
                d="M13.4999 34.8334H10.8333V37.5H13.4999V34.8334Z"
                fill="white"
              />
              <path
                d="M13.5 40.1667V37.5H10.8333C10.8333 38.2073 11.1143 38.8855 11.6144 39.3856C12.1145 39.8857 12.7928 40.1667 13.5 40.1667Z"
                fill="white"
              />
              <path
                d="M14.8333 32.1667C15.5697 32.1667 16.1667 31.5697 16.1667 30.8333C16.1667 30.097 15.5697 29.5 14.8333 29.5C14.097 29.5 13.5 30.097 13.5 30.8333C13.5 31.5697 14.097 32.1667 14.8333 32.1667Z"
                fill="white"
              />
              <path
                d="M13.5 34.8334V37.5H16.1667C16.1667 36.7928 15.8857 36.1145 15.3856 35.6144C14.8855 35.1143 14.2072 34.8334 13.5 34.8334Z"
                fill="white"
              />
              <path d="M16.1667 37.5H13.5V40.1667H16.1667V37.5Z" fill="white" />
              <path
                d="M17.5 24.1667C18.2363 24.1667 18.8333 23.5697 18.8333 22.8333C18.8333 22.097 18.2363 21.5 17.5 21.5C16.7636 21.5 16.1666 22.097 16.1666 22.8333C16.1666 23.5697 16.7636 24.1667 17.5 24.1667Z"
                fill="white"
              />
              <path
                d="M17.5 29.5C18.2363 29.5 18.8333 28.9031 18.8333 28.1667C18.8333 27.4303 18.2363 26.8334 17.5 26.8334C16.7636 26.8334 16.1666 27.4303 16.1666 28.1667C16.1666 28.9031 16.7636 29.5 17.5 29.5Z"
                fill="white"
              />
              <path
                d="M17.5 34.8334C18.2363 34.8334 18.8333 34.2364 18.8333 33.5C18.8333 32.7636 18.2363 32.1667 17.5 32.1667C16.7636 32.1667 16.1666 32.7636 16.1666 33.5C16.1666 34.2364 16.7636 34.8334 17.5 34.8334Z"
                fill="white"
              />
              <path
                d="M16.1666 37.5V40.1667H17.5C17.8536 40.1667 18.1927 40.0262 18.4428 39.7761C18.6928 39.5261 18.8333 39.187 18.8333 38.8333C18.8333 38.4797 18.6928 38.1406 18.4428 37.8905C18.1927 37.6405 17.8536 37.5 17.5 37.5"
                fill="white"
              />
              <path
                d="M17.5 45.5C18.2363 45.5 18.8333 44.9031 18.8333 44.1667C18.8333 43.4303 18.2363 42.8334 17.5 42.8334C16.7636 42.8334 16.1666 43.4303 16.1666 44.1667C16.1666 44.9031 16.7636 45.5 17.5 45.5Z"
                fill="white"
              />
              <path
                d="M20.1666 26.8334C20.903 26.8334 21.4999 26.2364 21.4999 25.5C21.4999 24.7636 20.903 24.1667 20.1666 24.1667C19.4302 24.1667 18.8333 24.7636 18.8333 25.5C18.8333 26.2364 19.4302 26.8334 20.1666 26.8334Z"
                fill="white"
              />
              <path
                d="M21.5 32.1667V29.5H20.1667C19.813 29.5 19.4739 29.6405 19.2239 29.8905C18.9738 30.1406 18.8333 30.4797 18.8333 30.8334C18.8333 31.187 18.9738 31.5261 19.2239 31.7762C19.4739 32.0262 19.813 32.1667 20.1667 32.1667"
                fill="white"
              />
              <path
                d="M20.1666 37.5C20.903 37.5 21.4999 36.9031 21.4999 36.1667C21.4999 35.4303 20.903 34.8334 20.1666 34.8334C19.4302 34.8334 18.8333 35.4303 18.8333 36.1667C18.8333 36.9031 19.4302 37.5 20.1666 37.5Z"
                fill="white"
              />
              <path
                d="M22.8333 2.83335C23.5697 2.83335 24.1667 2.2364 24.1667 1.50002C24.1667 0.763641 23.5697 0.166687 22.8333 0.166687C22.097 0.166687 21.5 0.763641 21.5 1.50002C21.5 2.2364 22.097 2.83335 22.8333 2.83335Z"
                fill="white"
              />
              <path
                d="M21.5 10.8334H24.1667V8.16671C23.4594 8.16671 22.7811 8.44766 22.281 8.94776C21.781 9.44785 21.5 10.1261 21.5 10.8334Z"
                fill="white"
              />
              <path
                d="M24.1667 10.8334H21.5V13.5H24.1667V10.8334Z"
                fill="white"
              />
              <path d="M24.1667 13.5H21.5V16.1667H24.1667V13.5Z" fill="white" />
              <path
                d="M24.1667 16.1667H21.5V18.8334H24.1667V16.1667Z"
                fill="white"
              />
              <path
                d="M24.1667 18.8334H21.5V21.5H24.1667V18.8334Z"
                fill="white"
              />
              <path
                d="M24.1666 21.5H21.5V22.8333C21.5 23.187 21.6404 23.5261 21.8905 23.7761C22.1405 24.0262 22.4797 24.1667 22.8333 24.1667C23.1869 24.1667 23.5261 24.0262 23.7761 23.7761C24.0262 23.5261 24.1666 23.187 24.1666 22.8333"
                fill="white"
              />
              <path
                d="M21.5 29.5V32.1667H24.1667C24.1667 31.4594 23.8857 30.7811 23.3856 30.281C22.8855 29.781 22.2072 29.5 21.5 29.5Z"
                fill="white"
              />
              <path
                d="M24.1666 32.1667H21.5V33.5C21.5 33.8536 21.6404 34.1928 21.8905 34.4428C22.1405 34.6929 22.4797 34.8334 22.8333 34.8334C23.1869 34.8334 23.5261 34.6929 23.7761 34.4428C24.0262 34.1928 24.1666 33.8536 24.1666 33.5"
                fill="white"
              />
              <path
                d="M21.5 40.1667H24.1667V37.5C23.4594 37.5 22.7811 37.781 22.281 38.2811C21.781 38.7812 21.5 39.4594 21.5 40.1667Z"
                fill="white"
              />
              <path
                d="M24.1667 40.1667H21.5V42.8334H24.1667V40.1667Z"
                fill="white"
              />
              <path
                d="M24.1667 42.8334H21.5V45.5H24.1667V42.8334Z"
                fill="white"
              />
              <path
                d="M24.1666 45.5H21.5V46.8333C21.5 47.187 21.6404 47.5261 21.8905 47.7761C22.1405 48.0262 22.4797 48.1667 22.8333 48.1667C23.1869 48.1667 23.5261 48.0262 23.7761 47.7761C24.0262 47.5261 24.1666 47.187 24.1666 46.8333"
                fill="white"
              />
              <path
                d="M24.1666 56.1667V53.5H22.8333C22.4797 53.5 22.1405 53.6405 21.8905 53.8905C21.6404 54.1406 21.5 54.4797 21.5 54.8334C21.5 55.187 21.6404 55.5261 21.8905 55.7762C22.1405 56.0262 22.4797 56.1667 22.8333 56.1667"
                fill="white"
              />
              <path
                d="M21.5 61.5H24.1667V58.8333C23.4594 58.8333 22.7811 59.1143 22.281 59.6144C21.7809 60.1145 21.5 60.7928 21.5 61.5Z"
                fill="white"
              />
              <path d="M24.1667 61.5H21.5V64.1667H24.1667V61.5Z" fill="white" />
              <path
                d="M24.1666 64.1667H21.5V65.5C21.5 65.8536 21.6404 66.1928 21.8905 66.4428C22.1405 66.6929 22.4797 66.8334 22.8333 66.8334C23.1869 66.8334 23.5261 66.6929 23.7761 66.4428C24.0262 66.1928 24.1666 65.8536 24.1666 65.5"
                fill="white"
              />
              <path
                d="M26.8333 5.5V2.83333H25.4999C25.1463 2.83333 24.8072 2.97381 24.5571 3.22386C24.3071 3.47391 24.1666 3.81304 24.1666 4.16667C24.1666 4.52029 24.3071 4.85943 24.5571 5.10948C24.8072 5.35952 25.1463 5.5 25.4999 5.5"
                fill="white"
              />
              <path
                d="M26.8333 8.16669H24.1666V10.8334H26.8333V8.16669Z"
                fill="white"
              />
              <path
                d="M26.8333 13.5H24.1666V16.1667H26.8333V13.5Z"
                fill="white"
              />
              <path
                d="M26.8333 18.8334H24.1666V21.5H26.8333V18.8334Z"
                fill="white"
              />
              <path
                d="M24.1666 37.5H26.8333V36.1667C26.8333 35.813 26.6928 35.4739 26.4428 35.2239C26.1927 34.9738 25.8536 34.8333 25.5 34.8333C25.1463 34.8333 24.8072 34.9738 24.5571 35.2239C24.3071 35.4739 24.1666 35.813 24.1666 36.1667"
                fill="white"
              />
              <path
                d="M26.8333 37.5H24.1666V40.1667H26.8333V37.5Z"
                fill="white"
              />
              <path
                d="M26.8333 40.1667H24.1666V42.8334H26.8333V40.1667Z"
                fill="white"
              />
              <path
                d="M24.1666 53.5H26.8333V50.8333C26.126 50.8333 25.4478 51.1143 24.9477 51.6144C24.4476 52.1145 24.1666 52.7928 24.1666 53.5Z"
                fill="white"
              />
              <path
                d="M26.8333 53.5H24.1666V56.1667H26.8333V53.5Z"
                fill="white"
              />
              <path
                d="M26.8333 56.1667H24.1666V58.8334H26.8333V56.1667Z"
                fill="white"
              />
              <path
                d="M26.8333 58.8334H24.1666V61.5H26.8333V58.8334Z"
                fill="white"
              />
              <path
                d="M26.8333 61.5H24.1666V64.1667C24.8738 64.1667 25.5521 63.8857 26.0522 63.3856C26.5523 62.8855 26.8333 62.2072 26.8333 61.5Z"
                fill="white"
              />
              <path
                d="M26.8333 2.83337H29.4999V0.166707C28.7927 0.166707 28.1144 0.447659 27.6143 0.947756C27.1142 1.44785 26.8333 2.12613 26.8333 2.83337Z"
                fill="white"
              />
              <path
                d="M29.4999 2.83337H26.8333V5.50004H29.4999V2.83337Z"
                fill="white"
              />
              <path
                d="M29.4999 5.5H26.8333V8.16667H29.4999V5.5Z"
                fill="white"
              />
              <path
                d="M29.4999 8.16669H26.8333V10.8334H29.4999V8.16669Z"
                fill="white"
              />
              <path
                d="M29.4999 10.8334H26.8333V13.5H29.4999V10.8334Z"
                fill="white"
              />
              <path
                d="M29.4999 13.5H26.8333V16.1667H29.4999V13.5Z"
                fill="white"
              />
              <path
                d="M29.4999 16.1667H26.8333V18.8334H29.4999V16.1667Z"
                fill="white"
              />
              <path
                d="M29.4999 18.8334H26.8333V21.5H29.4999V18.8334Z"
                fill="white"
              />
              <path
                d="M28.1666 26.8334C28.903 26.8334 29.4999 26.2364 29.4999 25.5C29.4999 24.7636 28.903 24.1667 28.1666 24.1667C27.4302 24.1667 26.8333 24.7636 26.8333 25.5C26.8333 26.2364 27.4302 26.8334 28.1666 26.8334Z"
                fill="white"
              />
              <path
                d="M26.8333 40.1667V42.8334H29.4999C29.4999 42.1261 29.219 41.4478 28.7189 40.9477C28.2188 40.4476 27.5405 40.1667 26.8333 40.1667Z"
                fill="white"
              />
              <path
                d="M29.4999 42.8334H26.8333V45.5H29.4999V42.8334Z"
                fill="white"
              />
              <path
                d="M29.5 45.5H26.8333V46.8333C26.8333 47.187 26.9738 47.5261 27.2239 47.7761C27.4739 48.0262 27.813 48.1667 28.1667 48.1667C28.5203 48.1667 28.8594 48.0262 29.1095 47.7761C29.3595 47.5261 29.5 47.187 29.5 46.8333"
                fill="white"
              />
              <path
                d="M26.8333 50.8334V53.5H28.1666C28.5202 53.5 28.8593 53.3596 29.1094 53.1095C29.3594 52.8595 29.4999 52.5203 29.4999 52.1667C29.4999 51.8131 29.3594 51.4739 29.1094 51.2239C28.8593 50.9738 28.5202 50.8334 28.1666 50.8334"
                fill="white"
              />
              <path
                d="M29.4999 56.1667H26.8333V58.8334H29.4999V56.1667Z"
                fill="white"
              />
              <path
                d="M29.5 66.8334V64.1667H28.1667C27.813 64.1667 27.4739 64.3072 27.2239 64.5572C26.9738 64.8073 26.8333 65.1464 26.8333 65.5C26.8333 65.8537 26.9738 66.1928 27.2239 66.4429C27.4739 66.6929 27.813 66.8334 28.1667 66.8334"
                fill="white"
              />
              <path
                d="M29.5 0.166687V2.83335H30.8333C31.187 2.83335 31.5261 2.69288 31.7761 2.44283C32.0262 2.19278 32.1667 1.85364 32.1667 1.50002C32.1667 1.1464 32.0262 0.80726 31.7761 0.557211C31.5261 0.307163 31.187 0.166687 30.8333 0.166687"
                fill="white"
              />
              <path
                d="M32.1667 8.16669H29.5V10.8334H32.1667V8.16669Z"
                fill="white"
              />
              <path
                d="M32.1667 10.8334H29.5V13.5H32.1667V10.8334Z"
                fill="white"
              />
              <path
                d="M29.5 18.8334V21.5H32.1667C32.1667 20.7928 31.8857 20.1145 31.3856 19.6144C30.8855 19.1143 30.2072 18.8334 29.5 18.8334Z"
                fill="white"
              />
              <path
                d="M32.1666 24.1667V21.5H29.5C29.5 22.2073 29.7809 22.8855 30.281 23.3856C30.7811 23.8857 31.4594 24.1667 32.1666 24.1667Z"
                fill="white"
              />
              <path
                d="M29.5 29.5H32.1667V26.8333C31.4594 26.8333 30.7811 27.1143 30.281 27.6144C29.781 28.1145 29.5 28.7928 29.5 29.5Z"
                fill="white"
              />
              <path d="M32.1667 29.5H29.5V32.1667H32.1667V29.5Z" fill="white" />
              <path
                d="M32.1666 32.1667H29.5V33.5C29.5 33.8536 29.6404 34.1928 29.8905 34.4428C30.1405 34.6929 30.4797 34.8334 30.8333 34.8334C31.1869 34.8334 31.5261 34.6929 31.7761 34.4428C32.0262 34.1928 32.1666 33.8536 32.1666 33.5"
                fill="white"
              />
              <path
                d="M32.1666 40.1667V37.5H30.8333C30.4797 37.5 30.1405 37.6405 29.8905 37.8905C29.6404 38.1406 29.5 38.4797 29.5 38.8334C29.5 39.187 29.6404 39.5261 29.8905 39.7762C30.1405 40.0262 30.4797 40.1667 30.8333 40.1667"
                fill="white"
              />
              <path
                d="M32.1667 42.8334H29.5V45.5H32.1667V42.8334Z"
                fill="white"
              />
              <path
                d="M32.1666 50.8334V48.1667H30.8333C30.4797 48.1667 30.1405 48.3072 29.8905 48.5572C29.6404 48.8073 29.5 49.1464 29.5 49.5C29.5 49.8537 29.6404 50.1928 29.8905 50.4429C30.1405 50.6929 30.4797 50.8334 30.8333 50.8334"
                fill="white"
              />
              <path
                d="M29.5 56.1667V58.8334H32.1667C32.1667 58.1261 31.8857 57.4478 31.3856 56.9477C30.8855 56.4476 30.2072 56.1667 29.5 56.1667Z"
                fill="white"
              />
              <path
                d="M32.1667 58.8334H29.5V61.5H32.1667V58.8334Z"
                fill="white"
              />
              <path d="M32.1667 61.5H29.5V64.1667H32.1667V61.5Z" fill="white" />
              <path
                d="M32.1667 64.1667H29.5V66.8334H32.1667V64.1667Z"
                fill="white"
              />
              <path
                d="M34.8333 8.16669H32.1666V10.8334H34.8333V8.16669Z"
                fill="white"
              />
              <path
                d="M34.8333 10.8334H32.1666V13.5H34.8333V10.8334Z"
                fill="white"
              />
              <path
                d="M34.8333 13.5H32.1666V16.1667H34.8333V13.5Z"
                fill="white"
              />
              <path
                d="M34.8333 16.1667H32.1666V17.5C32.1666 17.8536 32.3071 18.1928 32.5571 18.4428C32.8072 18.6929 33.1463 18.8334 33.4999 18.8334C33.8535 18.8334 34.1927 18.6929 34.4427 18.4428C34.6928 18.1928 34.8333 17.8536 34.8333 17.5"
                fill="white"
              />
              <path
                d="M32.1666 21.5V24.1667H33.5C33.8536 24.1667 34.1927 24.0262 34.4428 23.7761C34.6928 23.5261 34.8333 23.187 34.8333 22.8333C34.8333 22.4797 34.6928 22.1406 34.4428 21.8905C34.1927 21.6405 33.8536 21.5 33.5 21.5"
                fill="white"
              />
              <path
                d="M34.8333 26.8334H32.1666V29.5H34.8333V26.8334Z"
                fill="white"
              />
              <path
                d="M34.8333 37.5H32.1666V40.1667H34.8333V37.5Z"
                fill="white"
              />
              <path
                d="M34.8333 42.8334H32.1666V45.5H34.8333V42.8334Z"
                fill="white"
              />
              <path
                d="M32.1666 48.1667V50.8334H34.8333C34.8333 50.1261 34.5523 49.4478 34.0522 48.9477C33.5521 48.4476 32.8739 48.1667 32.1666 48.1667Z"
                fill="white"
              />
              <path
                d="M34.8333 50.8334H32.1666V52.1667C32.1666 52.5203 32.3071 52.8595 32.5571 53.1095C32.8072 53.3596 33.1463 53.5 33.4999 53.5C33.8535 53.5 34.1927 53.3596 34.4427 53.1095C34.6928 52.8595 34.8333 52.5203 34.8333 52.1667"
                fill="white"
              />
              <path
                d="M32.1666 64.1667V66.8334H33.5C33.8536 66.8334 34.1927 66.6929 34.4428 66.4428C34.6928 66.1928 34.8333 65.8536 34.8333 65.5C34.8333 65.1464 34.6928 64.8073 34.4428 64.5572C34.1927 64.3072 33.8536 64.1667 33.5 64.1667"
                fill="white"
              />
              <path
                d="M34.8333 2.83337H37.4999V0.166707C36.7927 0.166707 36.1144 0.447659 35.6143 0.947756C35.1142 1.44785 34.8333 2.12613 34.8333 2.83337Z"
                fill="white"
              />
              <path
                d="M37.4999 2.83337H34.8333V5.50004H37.4999V2.83337Z"
                fill="white"
              />
              <path
                d="M37.4999 5.5H34.8333V8.16667H37.4999V5.5Z"
                fill="white"
              />
              <path
                d="M37.4999 8.16669H34.8333V10.8334H37.4999V8.16669Z"
                fill="white"
              />
              <path
                d="M37.5 21.5V18.8333H36.1667C35.813 18.8333 35.4739 18.9738 35.2239 19.2239C34.9738 19.4739 34.8333 19.813 34.8333 20.1667C34.8333 20.5203 34.9738 20.8594 35.2239 21.1095C35.4739 21.3595 35.813 21.5 36.1667 21.5"
                fill="white"
              />
              <path
                d="M34.8333 26.8334H37.4999V25.5C37.4999 25.1464 37.3594 24.8073 37.1094 24.5572C36.8593 24.3072 36.5202 24.1667 36.1666 24.1667C35.813 24.1667 35.4738 24.3072 35.2238 24.5572C34.9737 24.8073 34.8333 25.1464 34.8333 25.5"
                fill="white"
              />
              <path
                d="M37.5 26.8334H34.8333V29.5C35.5406 29.5 36.2189 29.2191 36.719 28.719C37.219 28.2189 37.5 27.5406 37.5 26.8334Z"
                fill="white"
              />
              <path
                d="M36.1666 34.8334C36.903 34.8334 37.4999 34.2364 37.4999 33.5C37.4999 32.7636 36.903 32.1667 36.1666 32.1667C35.4302 32.1667 34.8333 32.7636 34.8333 33.5C34.8333 34.2364 35.4302 34.8334 36.1666 34.8334Z"
                fill="white"
              />
              <path
                d="M37.4999 37.5H34.8333V40.1667H37.4999V37.5Z"
                fill="white"
              />
              <path
                d="M37.4999 40.1667H34.8333V42.8334H37.4999V40.1667Z"
                fill="white"
              />
              <path
                d="M37.4999 42.8334H34.8333V45.5H37.4999V42.8334Z"
                fill="white"
              />
              <path
                d="M37.5 56.1667V53.5H36.1667C35.813 53.5 35.4739 53.6405 35.2239 53.8905C34.9738 54.1406 34.8333 54.4797 34.8333 54.8334C34.8333 55.187 34.9738 55.5261 35.2239 55.7762C35.4739 56.0262 35.813 56.1667 36.1667 56.1667"
                fill="white"
              />
              <path
                d="M37.5 64.1667V61.5H36.1667C35.813 61.5 35.4739 61.6405 35.2239 61.8905C34.9738 62.1406 34.8333 62.4797 34.8333 62.8334C34.8333 63.187 34.9738 63.5261 35.2239 63.7762C35.4739 64.0262 35.813 64.1667 36.1667 64.1667"
                fill="white"
              />
              <path
                d="M40.1667 0.166687H37.5V2.83335H40.1667V0.166687Z"
                fill="white"
              />
              <path
                d="M40.1666 2.83337H37.5V5.50004C38.2072 5.50004 38.8855 5.21909 39.3856 4.71899C39.8857 4.21889 40.1666 3.54062 40.1666 2.83337Z"
                fill="white"
              />
              <path
                d="M40.1667 8.16669H37.5V10.8334H40.1667V8.16669Z"
                fill="white"
              />
              <path
                d="M37.5 16.1667H40.1667V14.8334C40.1667 14.4797 40.0262 14.1406 39.7761 13.8905C39.5261 13.6405 39.187 13.5 38.8333 13.5C38.4797 13.5 38.1406 13.6405 37.8905 13.8905C37.6405 14.1406 37.5 14.4797 37.5 14.8334"
                fill="white"
              />
              <path
                d="M40.1667 16.1667H37.5V18.8334H40.1667V16.1667Z"
                fill="white"
              />
              <path
                d="M40.1667 18.8334H37.5V21.5H40.1667V18.8334Z"
                fill="white"
              />
              <path
                d="M40.1666 21.5H37.5V22.8333C37.5 23.187 37.6404 23.5261 37.8905 23.7761C38.1405 24.0262 38.4797 24.1667 38.8333 24.1667C39.1869 24.1667 39.5261 24.0262 39.7761 23.7761C40.0262 23.5261 40.1666 23.187 40.1666 22.8333"
                fill="white"
              />
              <path
                d="M37.5 37.5V40.1667H40.1667C40.1667 39.4594 39.8857 38.7811 39.3856 38.281C38.8855 37.781 38.2072 37.5 37.5 37.5Z"
                fill="white"
              />
              <path
                d="M40.1667 40.1667H37.5V42.8334H40.1667V40.1667Z"
                fill="white"
              />
              <path
                d="M40.1667 42.8334H37.5V45.5H40.1667V42.8334Z"
                fill="white"
              />
              <path d="M40.1667 45.5H37.5V48.1667H40.1667V45.5Z" fill="white" />
              <path
                d="M40.1666 48.1667H37.5V49.5C37.5 49.8536 37.6404 50.1928 37.8905 50.4428C38.1405 50.6929 38.4797 50.8334 38.8333 50.8334C39.1869 50.8334 39.5261 50.6929 39.7761 50.4428C40.0262 50.1928 40.1666 49.8536 40.1666 49.5"
                fill="white"
              />
              <path
                d="M37.5 53.5V56.1667H40.1667C40.1667 55.4594 39.8857 54.7811 39.3856 54.281C38.8855 53.7809 38.2072 53.5 37.5 53.5Z"
                fill="white"
              />
              <path
                d="M40.1667 56.1667H37.5V58.8334H40.1667V56.1667Z"
                fill="white"
              />
              <path
                d="M40.1667 58.8334H37.5V61.5H40.1667V58.8334Z"
                fill="white"
              />
              <path d="M40.1667 61.5H37.5V64.1667H40.1667V61.5Z" fill="white" />
              <path
                d="M40.1666 66.8334V64.1667H37.5C37.5 64.874 37.7809 65.5522 38.281 66.0523C38.7811 66.5524 39.4594 66.8334 40.1666 66.8334Z"
                fill="white"
              />
              <path
                d="M42.8333 0.166687H40.1666V2.83335H42.8333V0.166687Z"
                fill="white"
              />
              <path
                d="M40.1666 8.16669H42.8333V5.50002C42.126 5.50002 41.4478 5.78097 40.9477 6.28107C40.4476 6.78116 40.1666 7.45944 40.1666 8.16669Z"
                fill="white"
              />
              <path
                d="M42.8333 8.16669H40.1666V10.8334C40.8738 10.8334 41.5521 10.5524 42.0522 10.0523C42.5523 9.55221 42.8333 8.87393 42.8333 8.16669Z"
                fill="white"
              />
              <path
                d="M42.8333 34.8334V32.1667H41.4999C41.1463 32.1667 40.8072 32.3072 40.5571 32.5572C40.3071 32.8073 40.1666 33.1464 40.1666 33.5C40.1666 33.8537 40.3071 34.1928 40.5571 34.4429C40.8072 34.6929 41.1463 34.8334 41.4999 34.8334"
                fill="white"
              />
              <path
                d="M40.1666 40.1667V42.8334H42.8333C42.8333 42.1261 42.5523 41.4478 42.0522 40.9477C41.5521 40.4476 40.8739 40.1667 40.1666 40.1667Z"
                fill="white"
              />
              <path
                d="M42.8333 42.8334H40.1666V45.5H42.8333V42.8334Z"
                fill="white"
              />
              <path
                d="M42.8333 53.5V50.8333H41.4999C41.1463 50.8333 40.8072 50.9738 40.5571 51.2239C40.3071 51.4739 40.1666 51.813 40.1666 52.1667C40.1666 52.5203 40.3071 52.8594 40.5571 53.1095C40.8072 53.3595 41.1463 53.5 41.4999 53.5"
                fill="white"
              />
              <path
                d="M40.1666 56.1667V58.8334H42.8333C42.8333 58.1261 42.5523 57.4478 42.0522 56.9477C41.5521 56.4476 40.8739 56.1667 40.1666 56.1667Z"
                fill="white"
              />
              <path
                d="M42.8333 58.8334H40.1666V61.5H42.8333V58.8334Z"
                fill="white"
              />
              <path
                d="M40.1666 64.1667V66.8334H41.5C41.8536 66.8334 42.1927 66.6929 42.4428 66.4428C42.6928 66.1928 42.8333 65.8536 42.8333 65.5C42.8333 65.1464 42.6928 64.8073 42.4428 64.5572C42.1927 64.3072 41.8536 64.1667 41.5 64.1667"
                fill="white"
              />
              <path
                d="M42.8333 0.166687V2.83335H44.1666C44.5202 2.83335 44.8593 2.69288 45.1094 2.44283C45.3594 2.19278 45.4999 1.85364 45.4999 1.50002C45.4999 1.1464 45.3594 0.80726 45.1094 0.557211C44.8593 0.307163 44.5202 0.166687 44.1666 0.166687"
                fill="white"
              />
              <path
                d="M42.8333 5.5V8.16667H44.1666C44.5202 8.16667 44.8593 8.02619 45.1094 7.77614C45.3594 7.52609 45.4999 7.18696 45.4999 6.83333C45.4999 6.47971 45.3594 6.14057 45.1094 5.89052C44.8593 5.64048 44.5202 5.5 44.1666 5.5"
                fill="white"
              />
              <path
                d="M42.8333 13.5H45.4999V12.1667C45.4999 11.813 45.3594 11.4739 45.1094 11.2239C44.8593 10.9738 44.5202 10.8333 44.1666 10.8333C43.813 10.8333 43.4738 10.9738 43.2238 11.2239C42.9737 11.4739 42.8333 11.813 42.8333 12.1667"
                fill="white"
              />
              <path
                d="M45.4999 13.5H42.8333V16.1667H45.4999V13.5Z"
                fill="white"
              />
              <path
                d="M45.5 16.1667H42.8333V17.5C42.8333 17.8536 42.9738 18.1928 43.2239 18.4428C43.4739 18.6929 43.813 18.8334 44.1667 18.8334C44.5203 18.8334 44.8594 18.6929 45.1095 18.4428C45.3595 18.1928 45.5 17.8536 45.5 17.5"
                fill="white"
              />
              <path
                d="M42.8333 24.1667H45.4999V21.5C44.7927 21.5 44.1144 21.781 43.6143 22.2811C43.1142 22.7812 42.8333 23.4594 42.8333 24.1667Z"
                fill="white"
              />
              <path
                d="M45.5 24.1667H42.8333V25.5C42.8333 25.8536 42.9738 26.1928 43.2239 26.4428C43.4739 26.6929 43.813 26.8334 44.1667 26.8334C44.5203 26.8334 44.8594 26.6929 45.1095 26.4428C45.3595 26.1928 45.5 25.8536 45.5 25.5"
                fill="white"
              />
              <path
                d="M42.8333 32.1667H45.4999V29.5C44.7927 29.5 44.1144 29.781 43.6143 30.2811C43.1142 30.7812 42.8333 31.4594 42.8333 32.1667Z"
                fill="white"
              />
              <path
                d="M45.4999 32.1667H42.8333V34.8334H45.4999V32.1667Z"
                fill="white"
              />
              <path
                d="M45.5 34.8334H42.8333V36.1667C42.8333 36.5203 42.9738 36.8595 43.2239 37.1095C43.4739 37.3596 43.813 37.5 44.1667 37.5C44.5203 37.5 44.8594 37.3596 45.1095 37.1095C45.3595 36.8595 45.5 36.5203 45.5 36.1667"
                fill="white"
              />
              <path
                d="M45.4999 42.8334H42.8333V45.5H45.4999V42.8334Z"
                fill="white"
              />
              <path
                d="M45.4999 45.5H42.8333V48.1667H45.4999V45.5Z"
                fill="white"
              />
              <path
                d="M45.4999 48.1667H42.8333V50.8334H45.4999V48.1667Z"
                fill="white"
              />
              <path
                d="M45.4999 50.8334H42.8333V53.5H45.4999V50.8334Z"
                fill="white"
              />
              <path
                d="M45.5 56.1667V53.5H42.8333C42.8333 54.2073 43.1143 54.8855 43.6144 55.3856C44.1145 55.8857 44.7928 56.1667 45.5 56.1667Z"
                fill="white"
              />
              <path
                d="M45.4999 58.8334H42.8333V61.5H45.4999V58.8334Z"
                fill="white"
              />
              <path
                d="M45.5 64.1667V61.5H42.8333C42.8333 62.2073 43.1143 62.8855 43.6144 63.3856C44.1145 63.8857 44.7928 64.1667 45.5 64.1667Z"
                fill="white"
              />
              <path d="M48.1667 21.5H45.5V24.1667H48.1667V21.5Z" fill="white" />
              <path
                d="M45.5 29.5H48.1667V26.8333C47.4594 26.8333 46.7811 27.1143 46.281 27.6144C45.781 28.1145 45.5 28.7928 45.5 29.5Z"
                fill="white"
              />
              <path
                d="M48.1666 29.5H45.5V32.1667C46.2072 32.1667 46.8855 31.8857 47.3856 31.3856C47.8857 30.8855 48.1666 30.2072 48.1666 29.5Z"
                fill="white"
              />
              <path
                d="M45.5 40.1667H48.1667V37.5C47.4594 37.5 46.7811 37.781 46.281 38.2811C45.781 38.7812 45.5 39.4594 45.5 40.1667Z"
                fill="white"
              />
              <path
                d="M48.1667 40.1667H45.5V42.8334H48.1667V40.1667Z"
                fill="white"
              />
              <path
                d="M48.1667 42.8334H45.5V45.5H48.1667V42.8334Z"
                fill="white"
              />
              <path d="M48.1667 53.5H45.5V56.1667H48.1667V53.5Z" fill="white" />
              <path
                d="M45.5 58.8334V61.5H48.1667C48.1667 60.7928 47.8857 60.1145 47.3856 59.6144C46.8855 59.1143 46.2072 58.8334 45.5 58.8334Z"
                fill="white"
              />
              <path
                d="M48.1666 61.5H45.5V64.1667C46.2072 64.1667 46.8855 63.8857 47.3856 63.3856C47.8857 62.8855 48.1666 62.2072 48.1666 61.5Z"
                fill="white"
              />
              <path
                d="M50.8333 21.5H48.1666V24.1667H50.8333V21.5Z"
                fill="white"
              />
              <path
                d="M50.8333 24.1667H48.1666V26.8334H50.8333V24.1667Z"
                fill="white"
              />
              <path
                d="M50.8333 26.8334H48.1666V29.5C48.8738 29.5 49.5521 29.2191 50.0522 28.719C50.5523 28.2189 50.8333 27.5406 50.8333 26.8334Z"
                fill="white"
              />
              <path
                d="M49.5 34.8334C50.2363 34.8334 50.8333 34.2364 50.8333 33.5C50.8333 32.7636 50.2363 32.1667 49.5 32.1667C48.7636 32.1667 48.1666 32.7636 48.1666 33.5C48.1666 34.2364 48.7636 34.8334 49.5 34.8334Z"
                fill="white"
              />
              <path
                d="M50.8333 37.5H48.1666V40.1667H50.8333V37.5Z"
                fill="white"
              />
              <path
                d="M50.8333 42.8334H48.1666V45.5H50.8333V42.8334Z"
                fill="white"
              />
              <path
                d="M49.5 50.8334C50.2363 50.8334 50.8333 50.2364 50.8333 49.5C50.8333 48.7636 50.2363 48.1667 49.5 48.1667C48.7636 48.1667 48.1666 48.7636 48.1666 49.5C48.1666 50.2364 48.7636 50.8334 49.5 50.8334Z"
                fill="white"
              />
              <path
                d="M50.8333 53.5H48.1666V56.1667H50.8333V53.5Z"
                fill="white"
              />
              <path
                d="M50.8333 66.8334V64.1667H49.4999C49.1463 64.1667 48.8072 64.3072 48.5571 64.5572C48.3071 64.8073 48.1666 65.1464 48.1666 65.5C48.1666 65.8537 48.3071 66.1928 48.5571 66.4429C48.8072 66.6929 49.1463 66.8334 49.4999 66.8334"
                fill="white"
              />
              <path
                d="M53.4999 21.5H50.8333V24.1667H53.4999V21.5Z"
                fill="white"
              />
              <path
                d="M53.5 32.1667V29.5H52.1667C51.813 29.5 51.4739 29.6405 51.2239 29.8905C50.9738 30.1406 50.8333 30.4797 50.8333 30.8334C50.8333 31.187 50.9738 31.5261 51.2239 31.7762C51.4739 32.0262 51.813 32.1667 52.1667 32.1667"
                fill="white"
              />
              <path
                d="M50.8333 37.5H53.4999V36.1667C53.4999 35.813 53.3594 35.4739 53.1094 35.2239C52.8593 34.9738 52.5202 34.8333 52.1666 34.8333C51.813 34.8333 51.4738 34.9738 51.2238 35.2239C50.9737 35.4739 50.8333 35.813 50.8333 36.1667"
                fill="white"
              />
              <path
                d="M53.4999 37.5H50.8333V40.1667H53.4999V37.5Z"
                fill="white"
              />
              <path
                d="M53.4999 40.1667H50.8333V42.8334H53.4999V40.1667Z"
                fill="white"
              />
              <path
                d="M53.4999 42.8334H50.8333V45.5H53.4999V42.8334Z"
                fill="white"
              />
              <path
                d="M53.4999 53.5H50.8333V56.1667H53.4999V53.5Z"
                fill="white"
              />
              <path
                d="M50.8333 64.1667V66.8334H52.1666C52.5202 66.8334 52.8593 66.6929 53.1094 66.4428C53.3594 66.1928 53.4999 65.8536 53.4999 65.5C53.4999 65.1464 53.3594 64.8073 53.1094 64.5572C52.8593 64.3072 52.5202 64.1667 52.1666 64.1667"
                fill="white"
              />
              <path d="M56.1667 21.5H53.5V24.1667H56.1667V21.5Z" fill="white" />
              <path
                d="M53.5 29.5H56.1667V28.1667C56.1667 27.813 56.0262 27.4739 55.7761 27.2239C55.5261 26.9738 55.187 26.8333 54.8333 26.8333C54.4797 26.8333 54.1406 26.9738 53.8905 27.2239C53.6405 27.4739 53.5 27.813 53.5 28.1667"
                fill="white"
              />
              <path d="M56.1667 29.5H53.5V32.1667H56.1667V29.5Z" fill="white" />
              <path
                d="M56.1666 34.8334V32.1667H53.5C53.5 32.874 53.7809 33.5522 54.281 34.0523C54.7811 34.5524 55.4594 34.8334 56.1666 34.8334Z"
                fill="white"
              />
              <path
                d="M53.5 37.5V40.1667H56.1667C56.1667 39.4594 55.8857 38.7811 55.3856 38.281C54.8855 37.781 54.2072 37.5 53.5 37.5Z"
                fill="white"
              />
              <path
                d="M56.1667 40.1667H53.5V42.8334H56.1667V40.1667Z"
                fill="white"
              />
              <path
                d="M56.1667 42.8334H53.5V45.5H56.1667V42.8334Z"
                fill="white"
              />
              <path d="M56.1667 45.5H53.5V48.1667H56.1667V45.5Z" fill="white" />
              <path
                d="M56.1667 48.1667H53.5V50.8334H56.1667V48.1667Z"
                fill="white"
              />
              <path
                d="M56.1667 50.8334H53.5V53.5H56.1667V50.8334Z"
                fill="white"
              />
              <path
                d="M56.1666 53.5H53.5V56.1667C54.2072 56.1667 54.8855 55.8857 55.3856 55.3856C55.8857 54.8855 56.1666 54.2072 56.1666 53.5Z"
                fill="white"
              />
              <path
                d="M56.1666 21.5V24.1667H58.8333C58.8333 23.4594 58.5523 22.7811 58.0522 22.281C57.5521 21.781 56.8739 21.5 56.1666 21.5Z"
                fill="white"
              />
              <path
                d="M58.8333 26.8334V24.1667H56.1666C56.1666 24.874 56.4475 25.5522 56.9476 26.0523C57.4477 26.5524 58.126 26.8334 58.8333 26.8334Z"
                fill="white"
              />
              <path
                d="M56.1666 32.1667V34.8334H57.5C57.8536 34.8334 58.1927 34.6929 58.4428 34.4428C58.6928 34.1928 58.8333 33.8536 58.8333 33.5C58.8333 33.1464 58.6928 32.8073 58.4428 32.5572C58.1927 32.3072 57.8536 32.1667 57.5 32.1667"
                fill="white"
              />
              <path
                d="M58.8333 40.1667H56.1666V42.8334H58.8333V40.1667Z"
                fill="white"
              />
              <path
                d="M58.8333 42.8334H56.1666V45.5H58.8333V42.8334Z"
                fill="white"
              />
              <path
                d="M58.8333 45.5H56.1666V48.1667H58.8333V45.5Z"
                fill="white"
              />
              <path
                d="M58.8333 48.1667H56.1666V50.8334C56.8738 50.8334 57.5521 50.5524 58.0522 50.0523C58.5523 49.5522 58.8333 48.8739 58.8333 48.1667Z"
                fill="white"
              />
              <path
                d="M56.1666 64.1667H58.8333V61.5C58.126 61.5 57.4478 61.781 56.9477 62.2811C56.4476 62.7812 56.1666 63.4594 56.1666 64.1667Z"
                fill="white"
              />
              <path
                d="M58.8333 66.8334V64.1667H56.1666C56.1666 64.874 56.4475 65.5522 56.9476 66.0523C57.4477 66.5524 58.126 66.8334 58.8333 66.8334Z"
                fill="white"
              />
              <path
                d="M61.4999 24.1667H58.8333V26.8334H61.4999V24.1667Z"
                fill="white"
              />
              <path
                d="M61.4999 26.8334H58.8333V29.5H61.4999V26.8334Z"
                fill="white"
              />
              <path
                d="M61.5 29.5H58.8333V30.8333C58.8333 31.187 58.9738 31.5261 59.2239 31.7761C59.4739 32.0262 59.813 32.1667 60.1667 32.1667C60.5203 32.1667 60.8594 32.0262 61.1095 31.7761C61.3595 31.5261 61.5 31.187 61.5 30.8333"
                fill="white"
              />
              <path
                d="M58.8333 40.1667V42.8334H60.1666C60.5202 42.8334 60.8593 42.6929 61.1094 42.4428C61.3594 42.1928 61.4999 41.8536 61.4999 41.5C61.4999 41.1464 61.3594 40.8073 61.1094 40.5572C60.8593 40.3072 60.5202 40.1667 60.1666 40.1667"
                fill="white"
              />
              <path
                d="M58.8333 56.1667H61.4999V53.5C60.7927 53.5 60.1144 53.781 59.6143 54.2811C59.1142 54.7812 58.8333 55.4594 58.8333 56.1667Z"
                fill="white"
              />
              <path
                d="M61.4999 56.1667H58.8333V58.8334H61.4999V56.1667Z"
                fill="white"
              />
              <path
                d="M61.4999 58.8334H58.8333V61.5H61.4999V58.8334Z"
                fill="white"
              />
              <path
                d="M61.4999 61.5H58.8333V64.1667H61.4999V61.5Z"
                fill="white"
              />
              <path
                d="M61.4999 64.1667H58.8333V66.8334H61.4999V64.1667Z"
                fill="white"
              />
              <path
                d="M64.1667 24.1667H61.5V26.8334H64.1667V24.1667Z"
                fill="white"
              />
              <path
                d="M64.1666 26.8334H61.5V29.5C62.2072 29.5 62.8855 29.2191 63.3856 28.719C63.8857 28.2189 64.1666 27.5406 64.1666 26.8334Z"
                fill="white"
              />
              <path
                d="M64.1666 40.1667V37.5H62.8333C62.4797 37.5 62.1405 37.6405 61.8905 37.8905C61.6404 38.1406 61.5 38.4797 61.5 38.8334C61.5 39.187 61.6404 39.5261 61.8905 39.7762C62.1405 40.0262 62.4797 40.1667 62.8333 40.1667"
                fill="white"
              />
              <path
                d="M61.5 48.1667H64.1667V45.5C63.4594 45.5 62.7811 45.781 62.281 46.2811C61.7809 46.7812 61.5 47.4594 61.5 48.1667Z"
                fill="white"
              />
              <path
                d="M64.1667 48.1667H61.5V50.8334H64.1667V48.1667Z"
                fill="white"
              />
              <path
                d="M64.1667 50.8334H61.5V53.5H64.1667V50.8334Z"
                fill="white"
              />
              <path
                d="M64.1666 53.5H61.5V56.1667C62.2072 56.1667 62.8855 55.8857 63.3856 55.3856C63.8857 54.8855 64.1666 54.2072 64.1666 53.5Z"
                fill="white"
              />
              <path
                d="M61.5 58.8334V61.5H64.1667C64.1667 60.7928 63.8857 60.1145 63.3856 59.6144C62.8855 59.1143 62.2072 58.8334 61.5 58.8334Z"
                fill="white"
              />
              <path d="M64.1667 61.5H61.5V64.1667H64.1667V61.5Z" fill="white" />
              <path
                d="M64.1667 64.1667H61.5V66.8334H64.1667V64.1667Z"
                fill="white"
              />
              <path
                d="M64.1666 24.1667H66.8333V22.8334C66.8333 22.4797 66.6928 22.1406 66.4428 21.8905C66.1927 21.6405 65.8536 21.5 65.5 21.5C65.1463 21.5 64.8072 21.6405 64.5571 21.8905C64.3071 22.1406 64.1666 22.4797 64.1666 22.8334"
                fill="white"
              />
              <path
                d="M66.8333 24.1667H64.1666V26.8334C64.8738 26.8334 65.5521 26.5524 66.0522 26.0523C66.5523 25.5522 66.8333 24.8739 66.8333 24.1667Z"
                fill="white"
              />
              <path
                d="M65.5 34.8334C66.2363 34.8334 66.8333 34.2364 66.8333 33.5C66.8333 32.7636 66.2363 32.1667 65.5 32.1667C64.7636 32.1667 64.1666 32.7636 64.1666 33.5C64.1666 34.2364 64.7636 34.8334 65.5 34.8334Z"
                fill="white"
              />
              <path
                d="M64.1666 37.5V40.1667H65.5C65.8536 40.1667 66.1927 40.0262 66.4428 39.7761C66.6928 39.5261 66.8333 39.187 66.8333 38.8333C66.8333 38.4797 66.6928 38.1406 66.4428 37.8905C66.1927 37.6405 65.8536 37.5 65.5 37.5"
                fill="white"
              />
              <path
                d="M64.1666 45.5H66.8333V44.1667C66.8333 43.813 66.6928 43.4739 66.4428 43.2239C66.1927 42.9738 65.8536 42.8333 65.5 42.8333C65.1463 42.8333 64.8072 42.9738 64.5571 43.2239C64.3071 43.4739 64.1666 43.813 64.1666 44.1667"
                fill="white"
              />
              <path
                d="M66.8333 45.5H64.1666V48.1667C64.8738 48.1667 65.5521 47.8857 66.0522 47.3856C66.5523 46.8855 66.8333 46.2072 66.8333 45.5Z"
                fill="white"
              />
              <path
                d="M65.5 58.8334C66.2363 58.8334 66.8333 58.2364 66.8333 57.5C66.8333 56.7636 66.2363 56.1667 65.5 56.1667C64.7636 56.1667 64.1666 56.7636 64.1666 57.5C64.1666 58.2364 64.7636 58.8334 65.5 58.8334Z"
                fill="white"
              />
              <path
                d="M64.1666 64.1667V66.8334H65.5C65.8536 66.8334 66.1927 66.6929 66.4428 66.4428C66.6928 66.1928 66.8333 65.8536 66.8333 65.5C66.8333 65.1464 66.6928 64.8073 66.4428 64.5572C66.1927 64.3072 65.8536 64.1667 65.5 64.1667"
                fill="white"
              />
            </mask>
            <g mask="url(#mask0_691_1035)">
              <path
                d="M66.8333 0.166687H0.166626V66.8334H66.8333V0.166687Z"
                fill="#2C1E0E"
              />
            </g>
            <mask
              id="mask1_691_1035"
              style="mask-type:luminance"
              maskUnits="userSpaceOnUse"
              x="0"
              y="0"
              width="19"
              height="19"
            >
              <path
                fill-rule="evenodd"
                clip-rule="evenodd"
                d="M0.166626 6.83335V12.1667C0.166626 13.9348 0.869005 15.6305 2.11925 16.8807C3.36949 18.131 5.06518 18.8334 6.83329 18.8334H12.1666C13.9347 18.8334 15.6304 18.131 16.8807 16.8807C18.1309 15.6305 18.8333 13.9348 18.8333 12.1667V6.83335C18.8333 5.06524 18.1309 3.36955 16.8807 2.11931C15.6304 0.869066 13.9347 0.166687 12.1666 0.166687H6.83329C5.06518 0.166687 3.36949 0.869066 2.11925 2.11931C0.869005 3.36955 0.166626 5.06524 0.166626 6.83335ZM6.83329 2.83335H12.1666C13.2275 2.83335 14.2449 3.25478 14.9951 4.00493C15.7452 4.75507 16.1666 5.77249 16.1666 6.83335V12.1667C16.1666 13.2276 15.7452 14.245 14.9951 14.9951C14.2449 15.7453 13.2275 16.1667 12.1666 16.1667H6.83329C5.77243 16.1667 4.75501 15.7453 4.00487 14.9951C3.25472 14.245 2.83329 13.2276 2.83329 12.1667V6.83335C2.83329 5.77249 3.25472 4.75507 4.00487 4.00493C4.75501 3.25478 5.77243 2.83335 6.83329 2.83335Z"
                fill="white"
              />
            </mask>
            <g mask="url(#mask1_691_1035)">
              <path
                d="M18.8333 0.166687H0.166626V18.8334H18.8333V0.166687Z"
                fill="#2C1E0E"
              />
            </g>
            <mask
              id="mask2_691_1035"
              style="mask-type:luminance"
              maskUnits="userSpaceOnUse"
              x="5"
              y="5"
              width="9"
              height="9"
            >
              <path
                d="M5.5 8.16669H8.16667V5.50002C7.45942 5.50002 6.78115 5.78097 6.28105 6.28107C5.78095 6.78117 5.5 7.45944 5.5 8.16669Z"
                fill="white"
              />
              <path
                d="M8.16667 8.16669H5.5V10.8334H8.16667V8.16669Z"
                fill="white"
              />
              <path
                d="M8.16663 13.5V10.8333H5.49996C5.49996 11.5406 5.78091 12.2189 6.28101 12.719C6.7811 13.219 7.45938 13.5 8.16663 13.5Z"
                fill="white"
              />
              <path
                d="M10.8333 5.5H8.16663V8.16667H10.8333V5.5Z"
                fill="white"
              />
              <path
                d="M10.8333 8.16669H8.16663V10.8334H10.8333V8.16669Z"
                fill="white"
              />
              <path
                d="M10.8333 10.8333H8.16663V13.5H10.8333V10.8333Z"
                fill="white"
              />
              <path
                d="M10.8334 5.5V8.16667H13.5C13.5 7.45942 13.2191 6.78115 12.719 6.28105C12.2189 5.78095 11.5406 5.5 10.8334 5.5Z"
                fill="white"
              />
              <path
                d="M13.5 8.16669H10.8334V10.8334H13.5V8.16669Z"
                fill="white"
              />
              <path
                d="M13.5 10.8333H10.8333V13.5C11.5406 13.5 12.2189 13.219 12.719 12.7189C13.219 12.2188 13.5 11.5406 13.5 10.8333Z"
                fill="white"
              />
            </mask>
            <g mask="url(#mask2_691_1035)">
              <path d="M13.5 5.5H5.5V13.5H13.5V5.5Z" fill="#2C1E0E" />
            </g>
            <mask
              id="mask3_691_1035"
              style="mask-type:luminance"
              maskUnits="userSpaceOnUse"
              x="48"
              y="0"
              width="19"
              height="19"
            >
              <path
                fill-rule="evenodd"
                clip-rule="evenodd"
                d="M60.1666 0.166687L54.8333 0.166687C53.0651 0.166687 51.3694 0.869066 50.1192 2.11931C48.869 3.36955 48.1666 5.06524 48.1666 6.83335V12.1667C48.1666 13.9348 48.869 15.6305 50.1192 16.8807C51.3694 18.131 53.0651 18.8334 54.8333 18.8334H60.1666C61.9347 18.8334 63.6304 18.131 64.8806 16.8807C66.1309 15.6305 66.8333 13.9348 66.8333 12.1667V6.83335C66.8333 5.06524 66.1309 3.36955 64.8806 2.11931C63.6304 0.869066 61.9347 0.166687 60.1666 0.166687ZM64.1666 6.83335V12.1667C64.1666 13.2276 63.7452 14.245 62.995 14.9951C62.2449 15.7453 61.2275 16.1667 60.1666 16.1667H54.8333C53.7724 16.1667 52.755 15.7453 52.0048 14.9951C51.2547 14.245 50.8333 13.2276 50.8333 12.1667V6.83335C50.8333 5.77249 51.2547 4.75507 52.0048 4.00493C52.755 3.25478 53.7724 2.83335 54.8333 2.83335L60.1666 2.83335C61.2275 2.83335 62.2449 3.25478 62.995 4.00493C63.7452 4.75507 64.1666 5.77249 64.1666 6.83335Z"
                fill="white"
              />
            </mask>
            <g mask="url(#mask3_691_1035)">
              <path
                d="M66.8333 0.166687H48.1666V18.8334H66.8333V0.166687Z"
                fill="#2C1E0E"
              />
            </g>
            <mask
              id="mask4_691_1035"
              style="mask-type:luminance"
              maskUnits="userSpaceOnUse"
              x="53"
              y="5"
              width="9"
              height="9"
            >
              <path
                d="M53.5 8.16669H56.1667V5.50002C55.4594 5.50002 54.7811 5.78097 54.281 6.28107C53.781 6.78116 53.5 7.45944 53.5 8.16669Z"
                fill="white"
              />
              <path
                d="M56.1667 8.16669H53.5V10.8334H56.1667V8.16669Z"
                fill="white"
              />
              <path
                d="M56.1666 13.5V10.8333H53.5C53.5 11.5406 53.7809 12.2189 54.281 12.719C54.7811 13.219 55.4594 13.5 56.1666 13.5Z"
                fill="white"
              />
              <path
                d="M58.8333 5.5H56.1666V8.16667H58.8333V5.5Z"
                fill="white"
              />
              <path
                d="M58.8333 8.16669H56.1666V10.8334H58.8333V8.16669Z"
                fill="white"
              />
              <path
                d="M58.8333 10.8333H56.1666V13.5H58.8333V10.8333Z"
                fill="white"
              />
              <path
                d="M58.8334 5.5V8.16667H61.5C61.5 7.45942 61.2191 6.78115 60.719 6.28105C60.2189 5.78095 59.5406 5.5 58.8334 5.5Z"
                fill="white"
              />
              <path
                d="M61.5 8.16669H58.8334V10.8334H61.5V8.16669Z"
                fill="white"
              />
              <path
                d="M61.5 10.8333H58.8333V13.5C59.5406 13.5 60.2189 13.219 60.719 12.7189C61.219 12.2188 61.5 11.5406 61.5 10.8333Z"
                fill="white"
              />
            </mask>
            <g mask="url(#mask4_691_1035)">
              <path d="M61.5 5.5H53.5V13.5H61.5V5.5Z" fill="#2C1E0E" />
            </g>
            <mask
              id="mask5_691_1035"
              style="mask-type:luminance"
              maskUnits="userSpaceOnUse"
              x="0"
              y="48"
              width="19"
              height="19"
            >
              <path
                fill-rule="evenodd"
                clip-rule="evenodd"
                d="M6.83329 66.8334H12.1666C13.9347 66.8334 15.6304 66.131 16.8807 64.8808C18.1309 63.6305 18.8333 61.9348 18.8333 60.1667V54.8334C18.8333 53.0653 18.1309 51.3696 16.8807 50.1193C15.6304 48.8691 13.9347 48.1667 12.1666 48.1667H6.83329C5.06518 48.1667 3.36949 48.8691 2.11925 50.1193C0.869005 51.3696 0.166626 53.0653 0.166626 54.8334L0.166626 60.1667C0.166626 61.9348 0.869005 63.6305 2.11925 64.8808C3.36949 66.131 5.06518 66.8334 6.83329 66.8334ZM2.83329 60.1667L2.83329 54.8334C2.83329 53.7725 3.25472 52.7551 4.00487 52.0049C4.75501 51.2548 5.77243 50.8334 6.83329 50.8334H12.1666C13.2275 50.8334 14.2449 51.2548 14.9951 52.0049C15.7452 52.7551 16.1666 53.7725 16.1666 54.8334V60.1667C16.1666 61.2276 15.7452 62.245 14.9951 62.9951C14.2449 63.7453 13.2275 64.1667 12.1666 64.1667H6.83329C5.77243 64.1667 4.75501 63.7453 4.00487 62.9951C3.25472 62.245 2.83329 61.2276 2.83329 60.1667Z"
                fill="white"
              />
            </mask>
            <g mask="url(#mask5_691_1035)">
              <path
                d="M18.8333 48.1667H0.166626V66.8334H18.8333V48.1667Z"
                fill="#2C1E0E"
              />
            </g>
            <mask
              id="mask6_691_1035"
              style="mask-type:luminance"
              maskUnits="userSpaceOnUse"
              x="5"
              y="53"
              width="9"
              height="9"
            >
              <path
                d="M5.5 56.1667H8.16667V53.5C7.45942 53.5 6.78114 53.781 6.28105 54.2811C5.78095 54.7812 5.5 55.4594 5.5 56.1667Z"
                fill="white"
              />
              <path
                d="M8.16667 56.1667H5.5V58.8334H8.16667V56.1667Z"
                fill="white"
              />
              <path
                d="M8.16663 61.5V58.8333H5.49996C5.49996 59.5406 5.78091 60.2189 6.28101 60.719C6.7811 61.2191 7.45938 61.5 8.16663 61.5Z"
                fill="white"
              />
              <path
                d="M10.8333 53.5H8.16663V56.1667H10.8333V53.5Z"
                fill="white"
              />
              <path
                d="M10.8333 56.1667H8.16663V58.8334H10.8333V56.1667Z"
                fill="white"
              />
              <path
                d="M10.8333 58.8333H8.16663V61.5H10.8333V58.8333Z"
                fill="white"
              />
              <path
                d="M10.8334 53.5V56.1667H13.5C13.5 55.4594 13.2191 54.7811 12.719 54.281C12.2189 53.7809 11.5406 53.5 10.8334 53.5Z"
                fill="white"
              />
              <path
                d="M13.5 56.1667H10.8334V58.8334H13.5V56.1667Z"
                fill="white"
              />
              <path
                d="M13.5 58.8333H10.8333V61.5C11.5406 61.5 12.2189 61.219 12.719 60.7189C13.2191 60.2188 13.5 59.5406 13.5 58.8333Z"
                fill="white"
              />
            </mask>
            <g mask="url(#mask6_691_1035)">
              <path d="M13.5 53.5H5.5V61.5H13.5V53.5Z" fill="#2C1E0E" />
            </g>
          </svg>